<svg width="649" height="436" viewBox="0 0 649 436" fill="none" xmlns="http://www.w3.org/2000/svg">
<path fill-rule="evenodd" clip-rule="evenodd" d="M294.157 44.0658C337.27 43.4357 374.948 -12.9491 414.478 4.26828C452.05 20.6322 430.685 86.786 459.391 116.032C513.537 171.198 653.089 165.252 648.206 242.396C643.53 316.261 509.576 284.957 446.27 323.298C409.315 345.679 400.905 401.996 360.302 416.761C319.175 431.716 276.406 400.509 232.646 400.979C163.423 401.722 84.4216 463.209 30.0904 420.307C-20.5014 380.358 8.28864 295.016 17.6886 231.242C25.1811 180.409 48.6339 134.855 78.3439 92.9332C103.847 56.9467 133.057 17.4934 176.075 7.75254C217.068 -1.52975 252.13 44.68 294.157 44.0658Z" stroke="black"/>
</svg>
