<svg width="504" height="532" viewBox="0 0 504 532" fill="none" xmlns="http://www.w3.org/2000/svg">
<path fill-rule="evenodd" clip-rule="evenodd" d="M269.96 52.693C325.884 58.4854 386.09 13.0011 434.163 42.1555C482.401 71.4101 494.241 137.021 501.302 192.993C507.449 241.713 490.9 288.601 470.912 333.454C452.861 373.963 428.714 411.22 392.592 436.949C356.723 462.498 312.401 464.841 269.96 476.592C207.427 493.906 142.438 553.195 85.5653 521.959C30.3318 491.623 54.9794 404.121 31.5194 345.635C5.38056 280.471 -68.8399 230.769 -59.13 161.233C-49.2877 90.7477 11.4448 27.6636 79.0328 5.37183C142.864 -15.6808 203.105 45.7682 269.96 52.693Z" stroke="black"/>
</svg>
