<svg width="537" height="642" viewBox="0 0 537 642" fill="none" xmlns="http://www.w3.org/2000/svg">
<path fill-rule="evenodd" clip-rule="evenodd" d="M184.61 1.11826C259.221 -2.9948 288.166 101.191 339.62 155.378C379.367 197.235 421.894 232.429 451.379 282.052C489.158 345.634 547.991 409.605 533.806 482.191C519.445 555.672 455.089 626.004 381.482 639.701C308.407 653.299 252.685 577.016 184.61 547.17C150.578 532.249 113.928 529.166 82.8606 508.777C50.3249 487.425 13.2866 465.283 2.7514 427.82C-7.67579 390.741 23.5155 356.345 29.2854 318.262C36.8079 268.612 19.4519 216.909 41.5395 171.81C75.0128 103.464 108.623 5.30722 184.61 1.11826Z" stroke="black"/>
</svg>
